<svg xmlns="http://www.w3.org/2000/svg" xmlns:xlink="http://www.w3.org/1999/xlink"><symbol id="logo" viewBox="0 0 2600 1500">
 <g>
   <path class="fil0" d="M810.31 1339.82c0,0 1.23,-115.04 -136.29,-246.39 0,0 -86.5,-99.59 -83.88,-123.18 0,0 -38.3,35.47 14.39,113.02 0,0 43.28,78.31 9.2,104.53 -34.07,26.21 -165.3,-62.17 -152.19,-114.59 13.1,-52.42 68.42,-36.3 70.94,-121.31 0,0 -119.85,64.78 -124.45,126.15 0,0 18.35,102.22 55.04,120.57 0,0 -121.92,-53.26 -131,-167.92 -9.09,-114.66 -52.17,-89.77 -65.8,-88.64 0,0 11.35,53.36 17.02,88.55 0,0 9.08,89.68 51.09,145.31 0,0 -58.47,-93.13 -53.93,-131.73 -0.01,0 -18.18,8.95 -16.38,31.35 2.8,34.83 26.49,94.67 74.85,145.79 79.46,84.01 219.11,89.69 300.85,78.33 0,0 146.6,-14.84 170.54,40.16z"/>
   <path class="fil0" d="M591.63 447.68c14.44,-2.72 31.16,-6.24 50.15,-10.55 19,-4.31 40.55,-11.56 64.67,-21.73 -21.31,-6.49 -47.22,-9.54 -77.73,-9.16 -1.56,0.18 -5.09,0.45 -10.58,0.83 -5.49,0.37 -11.35,0.92 -17.59,1.64 -6.24,0.73 -11.96,1.39 -17.16,1.99 -5.2,0.6 -8.58,1 -10.14,1.18 -29.15,7.59 -43.32,17.14 -42.52,28.64 0.18,1.56 2.08,3.18 5.7,4.87 3.63,1.69 8.37,2.85 14.24,3.49 5.87,0.63 12.36,0.94 19.47,0.9 7.11,-0.03 14.27,-0.73 21.49,-2.1zm144.18 -38.06c8.8,3.2 18.11,7.39 27.94,12.57 9.82,5.19 19.27,11.73 28.35,19.63 9.09,7.91 17.24,16.84 24.45,26.81 7.22,9.96 12.59,21.06 16.12,33.3 5.93,19.34 8.9,39.28 8.91,59.83 0.01,20.55 -3.14,41.07 -9.46,61.56 -6.32,20.49 -15.55,40.79 -27.71,60.91 -12.16,20.12 -27.73,39.18 -46.72,57.19 -35.62,33.64 -77.67,58.4 -126.14,74.3 -48.48,15.9 -99.91,25.68 -154.28,29.35 -44.5,2.53 -83.42,-4.81 -116.77,-22.02 -33.34,-17.21 -55.42,-42.84 -66.22,-76.9 -10.49,-31.45 -11.19,-62.45 -2.09,-93.02 9.1,-30.56 25.65,-58.3 49.63,-83.21 23.98,-24.91 54.26,-45.55 90.83,-61.91 36.57,-16.36 77.59,-26.12 123.06,-29.29 35.08,-1.96 65.37,1.38 90.87,10.01 25.5,8.64 41.42,22.07 47.75,40.31 5.75,17.77 4.26,35.6 -4.47,53.47 -8.73,17.88 -21.97,34.3 -39.73,49.27 -17.76,14.97 -38.58,27.39 -62.47,37.28 -23.88,9.88 -47.84,15.69 -71.88,17.42 -18.89,0.61 -29.93,-3.64 -33.09,-12.76 -1.7,-5.6 -0.69,-10.46 3.05,-14.58 3.74,-4.12 9.54,-6.37 17.4,-6.76 3.12,-0.36 5.26,-0.08 6.42,0.84 0.12,1.04 -1.08,2.1 -3.59,3.18 -2.51,1.08 -5.12,2.44 -7.82,4.07 -2.71,1.63 -5,3.48 -6.87,5.54 -1.87,2.06 -2.39,4.36 -1.57,6.9 0.36,3.12 7.62,4.38 21.78,3.79 30.34,-1.93 65.79,-16.58 106.35,-43.94 27.94,-18 47.53,-35.42 58.75,-52.26 11.22,-16.85 14.39,-32.63 9.52,-47.35 -9.61,-28.39 -45.8,-40.53 -108.55,-36.41 -56.51,3.39 -111.14,20.79 -163.88,52.2 -21.67,13.05 -40.79,27.65 -57.36,43.8 -16.57,16.15 -29.75,33.09 -39.55,50.82 -9.8,17.74 -15.9,35.57 -18.3,53.5 -2.4,17.93 -0.52,35.23 5.63,51.91 9.33,30.53 28.54,51.88 57.61,64.06 29.08,12.17 65.08,17.08 108.02,14.74 20.4,-1.31 44.23,-5.92 71.51,-13.83 27.27,-7.9 55.01,-18.63 83.21,-32.17 28.2,-13.55 55.43,-29.75 81.7,-48.6 26.27,-18.86 48.94,-40.32 68.01,-64.4 19.08,-24.08 33,-50.59 41.76,-79.53 8.76,-28.95 9.65,-59.88 2.67,-92.79 -3.24,-14.38 -9.26,-26.46 -18.03,-36.24 -8.78,-9.79 -18.39,-17.76 -28.86,-23.92 -10.46,-6.17 -20.58,-10.53 -30.36,-13.08 -9.78,-2.55 -17.04,-3.82 -21.78,-3.8 -23.08,10.06 -44.93,18.12 -65.56,24.2 -20.64,6.09 -42.69,10.22 -66.14,12.42l-33.99 -0.01c-28.62,-1.43 -43.04,-7.66 -43.27,-18.7 0.16,-3.18 3.29,-6.83 9.4,-10.97 6.11,-4.13 14.09,-7.96 23.96,-11.47 9.87,-3.52 20.82,-6.76 32.86,-9.74 12.04,-2.98 24.29,-5.19 36.77,-6.64 2.14,0.28 4.37,0.16 6.68,-0.37 2.31,-0.54 5.31,-0.75 9.01,-0.65 15.72,-0.77 31.33,-0.21 46.83,1.68 15.5,1.89 30.54,4.36 45.12,7.41 10.5,-4.9 20.67,-11.48 30.51,-19.74 9.85,-8.25 18.37,-17.67 25.57,-28.26 7.21,-10.58 12.87,-21.91 17.01,-33.98 4.13,-12.07 6.25,-24.44 6.37,-37.1 0.42,-19.01 -7.1,-32.76 -22.57,-41.24 -15.48,-8.48 -35.29,-12.38 -59.45,-11.68 -4.22,-0.04 -9.33,0.16 -15.34,0.59 -6.01,0.43 -11.89,0.85 -17.64,1.25 -5.75,0.41 -10.97,0.88 -15.64,1.42 -4.68,0.55 -7.8,0.91 -9.36,1.09 -17.74,1.53 -37.96,3.22 -60.67,5.06 -22.71,1.84 -48.77,3.15 -78.19,3.93 -69.75,2.82 -105.07,-8.63 -105.94,-34.35 -0.2,-6.3 2.77,-12.44 8.93,-18.42 6.15,-5.99 14.21,-11.53 24.15,-16.63 9.95,-5.11 21.72,-9.24 35.32,-12.4 13.59,-3.16 27.99,-5.09 43.19,-5.8 11.56,-0.29 20.27,-0.11 26.14,0.53 5.87,0.63 8.61,1.5 8.21,2.6 0.18,1.56 -3.69,2.27 -11.61,2.14 -3.64,0.42 -6.27,0.46 -7.89,0.12 -13.64,0.53 -26.36,2.14 -38.17,4.82 -11.8,2.69 -22.21,6.14 -31.2,10.34 -9,4.21 -15.96,8.96 -20.87,14.28 -4.92,5.31 -7.28,11.12 -7.07,17.41 0.33,21.04 25.92,30.46 76.78,28.25 4.22,0.04 18.33,-0.94 42.34,-2.94 24,-1.99 57.68,-4.71 101.01,-8.15 3.12,-0.36 7.28,-0.85 12.48,-1.45 5.2,-0.6 10.53,-1.22 15.99,-1.85 5.46,-0.64 10.67,-1.11 15.64,-1.42 4.97,-0.32 8.75,-0.62 11.35,-0.92 37.8,-1.23 67.09,3.68 87.86,14.7 20.78,11.03 31.31,29.17 31.61,54.43 -0.25,20.58 -10.34,41.51 -30.27,62.79 -19.92,21.28 -45.57,39.8 -76.94,55.56l2.94 -1.93zm302.84 69.21c0.94,3.58 -0.13,6.87 -3.21,9.86 -3.07,2.99 -5.42,4.32 -7.04,3.98 0.4,-1.1 -0.5,-4.29 -2.69,-9.57 -2.2,-5.28 -7.71,-7.4 -16.55,-6.38 -17.68,2.05 -35.47,9.91 -53.38,23.58 -35.37,26.76 -61.55,69.05 -78.55,126.88 -6.03,20.72 -8.58,37.35 -7.66,49.89 0.39,7.86 2.98,12.04 7.78,12.53 8.5,0.6 20.27,-9.2 35.32,-29.39 11.37,-15.54 30.03,-47.74 55.98,-96.59 4.7,-9.5 10.97,-21.3 18.82,-35.38 7.02,-7.66 15.22,-14.15 24.62,-19.45 4.96,-2.68 7.79,-3.28 8.49,-1.78 0.06,0.52 -1.75,3.1 -5.43,7.75 -14.71,41.22 -32.59,105.21 -53.61,191.95 5.81,-4.36 12.41,-8.81 19.79,-13.36 5.87,-3.84 12.91,-6.76 21.11,-8.77 5.08,-1.64 7.71,-1.68 7.89,-0.12 0.12,1.04 -1.69,2.43 -5.44,4.18 -3.75,1.76 -10.81,5.61 -21.19,11.55 -5.94,3.32 -14.17,9.55 -24.71,18.67 -11.74,35.09 -26.4,69.98 -43.97,104.69 -9.45,18.49 -22.23,36.7 -38.32,54.64 -16.1,17.93 -28.57,27.42 -37.41,28.44 -8.32,0.96 -12.13,-4.65 -11.44,-16.85 0.99,-23.3 11.6,-52.2 31.84,-86.68 16.74,-28.29 39.27,-54.35 67.6,-78.19 2.39,-6.6 14.95,-52.84 37.66,-138.73 -16.08,34.01 -31.91,61.13 -47.47,81.38 -16.95,21.99 -31.17,33.39 -42.67,34.19 -16.76,0.89 -26.7,-9.81 -29.81,-32.11 -2.51,-17.09 -0.29,-36.58 6.66,-58.47 15.03,-47.58 44.62,-85.53 88.76,-113.83 25.01,-16.07 47.91,-25.32 68.71,-27.73 18.19,-2.11 28.03,0.97 29.52,9.22zm-113.81 259.01c-21.31,16.17 -40.25,39.18 -56.81,69.03 -12.21,21.97 -19.75,45.5 -22.64,70.6 -1.11,8.56 -0.05,13.18 3.19,13.86 3.7,0.09 8.83,-3.4 15.38,-10.48 11.21,-12.37 21.73,-30.71 31.56,-55.04 11.08,-27.1 20.85,-56.42 29.32,-87.97zm274.32 -272.09c0.64,0.98 -1.49,3.07 -6.39,6.28 -4.89,3.2 -9.94,5.1 -15.14,5.7 -5.72,0.67 -11.62,-0.23 -17.7,-2.69 7.62,11.24 12.43,25.44 14.42,42.59 2.23,19.24 0.3,38.96 -5.78,59.16 -9.63,30.63 -24.74,57.01 -45.36,79.16 -20.62,22.15 -38.15,32.22 -52.61,30.21 -19.84,-2.97 -31.39,-18.49 -34.65,-46.57 -1.69,-14.55 -0.41,-30.77 3.84,-48.65 10.69,-48.67 35.4,-85.52 74.12,-110.56 8.82,-5.76 13.81,-8.19 14.97,-7.27l-8.27 10.45c-27.86,36.95 -46.31,82.3 -55.36,136.04 -2.81,16.66 -3.67,29.67 -2.59,39.03 1.57,13.52 6.77,19.76 15.61,18.74 11.96,-1.39 25.47,-16.66 40.53,-45.8 16.84,-31.99 27.95,-65.68 33.33,-101.08 2.13,-13.42 2.69,-24.55 1.66,-33.39 -1.63,-14.04 -7.63,-24.94 -18.02,-32.69 -7.48,-5.46 -11.89,-9.42 -13.23,-11.9 -2.68,-4.96 -1.32,-9.07 4.1,-12.33 4.9,-3.21 9.57,-1.51 14.03,5.09 4.45,6.6 9.87,12.42 16.25,17.48 4.7,4.19 11.3,6.59 19.8,7.19 4.74,-0.03 9.65,-0.86 14.73,-2.5 5.08,-1.65 7.65,-2.21 7.71,-1.69zm171.01 -11.13c-0.28,38.49 -11.38,85.89 -33.3,142.17 3.58,-0.94 9.3,-2.66 17.18,-5.15 7.88,-2.49 12.11,-3.51 12.69,-3.05 0.76,2.02 -3.1,5.1 -11.57,9.24 -3,1.41 -10.07,4.07 -21.21,8 -6.75,14.48 -18.4,32.16 -34.95,53.05 -4.01,6.26 -8.1,9.64 -12.26,10.12 -7.8,0.9 -11.96,-5.46 -12.49,-19.1 0.78,-6.94 1.5,-18.88 2.17,-35.82l3.54 -3.57c14.04,-1.63 24.8,-4.2 32.3,-7.7 5.35,-17.48 11.43,-44.53 18.25,-81.16 6.08,-33.9 8.71,-58.97 7.88,-75.21 -15.85,8.69 -42.06,53.09 -78.61,133.21 -15.5,34.47 -29.53,72.45 -42.11,113.96 -8.52,31.02 -21.58,75.21 -39.16,132.58 -11.06,31.84 -24.52,63.44 -40.38,94.79 -6.42,12.86 -12.31,18.81 -17.69,17.86 -1.62,-0.34 -1.95,-7.68 -0.97,-22.02 1.54,-27.58 6.51,-57.4 14.91,-89.46 11.18,-44.51 29.94,-91.74 56.29,-141.69 4.71,-18.46 12.93,-52.08 24.66,-100.86 6.68,-28.71 14.87,-69.44 24.56,-122.2 -5.38,-0.96 -12.61,-1.96 -21.69,-3.02 15.23,-4.93 33.49,-13.37 54.76,-25.32 1.1,0.4 2.55,1.55 4.35,3.45 -0.06,-0.52 -1.14,3.82 -3.23,13.02 -10.2,43.86 -25.02,104.6 -44.48,182.2 18.28,-46.9 37.09,-89.13 56.45,-126.68 26.29,-50.47 49.14,-76.04 68.56,-76.71 10.46,-0.69 15.64,7.67 15.55,25.07zm-61.58 157.31c-2.02,0.76 -6.09,2.02 -12.21,3.79 -6.12,1.76 -10.42,3.31 -12.9,4.65 1.33,11.44 3.64,22.24 6.92,32.4 5.52,-6.97 11.58,-20.58 18.19,-40.84zm-121.44 97.86c-19.57,40.21 -34.7,80.17 -45.38,119.87 -5.23,18.52 -9.54,47.21 -12.94,86.07 6.61,-20.26 15.7,-48.71 27.25,-85.36 1.2,-3.3 11.56,-43.49 31.07,-120.58zm370.76 -285.64c0.64,0.98 -1.49,3.07 -6.38,6.27 -4.9,3.21 -9.95,5.11 -15.15,5.71 -5.72,0.66 -11.62,-0.23 -17.7,-2.69 7.63,11.24 12.43,25.43 14.42,42.59 2.23,19.24 0.31,38.96 -5.78,59.16 -9.62,30.62 -24.74,57.01 -45.36,79.16 -20.61,22.15 -38.15,32.22 -52.61,30.21 -19.84,-2.97 -31.39,-18.49 -34.65,-46.57 -1.69,-14.56 -0.4,-30.78 3.84,-48.66 10.7,-48.66 35.4,-85.51 74.13,-110.55 8.81,-5.77 13.8,-8.19 14.96,-7.27l-8.27 10.44c-27.86,36.96 -46.31,82.3 -55.36,136.05 -2.81,16.66 -3.67,29.67 -2.59,39.02 1.57,13.52 6.77,19.77 15.61,18.74 11.96,-1.38 25.47,-16.65 40.53,-45.8 16.84,-31.98 27.95,-65.68 33.33,-101.08 2.13,-13.42 2.69,-24.55 1.66,-33.39 -1.63,-14.03 -7.63,-24.93 -18.01,-32.68 -7.49,-5.46 -11.9,-9.43 -13.24,-11.91 -2.68,-4.95 -1.32,-9.06 4.1,-12.33 4.9,-3.2 9.58,-1.5 14.03,5.09 4.45,6.6 9.87,12.43 16.25,17.48 4.7,4.2 11.31,6.6 19.81,7.19 4.73,-0.02 9.64,-0.85 14.72,-2.5 5.08,-1.64 7.65,-2.2 7.71,-1.68zm11.09 -20.26c-15.6,1.81 -24.49,-2.16 -26.68,-11.92 -0.42,-3.64 0.71,-8.64 3.4,-15.02 2.69,-6.37 7.15,-9.91 13.39,-10.64 1.04,-0.12 1.59,0.08 1.65,0.6 0.12,1.04 -0.47,3.88 -1.78,8.51 -1.31,4.63 -1.23,8.7 0.23,12.22 2.74,5.48 8.23,8.53 16.47,9.16 8.24,0.62 18.25,-0.54 30.03,-3.49 8.73,-24.72 18.3,-47.83 28.71,-69.32 10.42,-21.5 21.11,-40.65 32.07,-57.47 10.96,-16.81 21.99,-30.74 33.09,-41.77 11.1,-11.04 21.7,-18.46 31.8,-22.27 12.3,-3 21.95,-2.67 28.97,0.99 7.01,3.67 11.65,8.53 13.94,14.59 2.4,7.1 3.34,15.16 2.8,24.18 -1.43,14.92 -7.78,31.72 -19.05,50.42 -11.27,18.69 -27.63,37.72 -49.1,57.07 -7.66,6.68 -18.04,13.68 -31.16,21 -13.11,7.32 -27.75,14.02 -43.9,20.11 -1.26,2.78 -2.23,5.79 -2.91,9.03 -13.09,41.56 -23.86,80.49 -32.3,116.77 -8.44,36.28 -11.39,65.34 -8.86,87.18 1.33,11.44 6.41,16.64 15.25,15.62 9.36,-1.09 18.58,-9.01 27.68,-23.76 9.09,-14.75 17.14,-31.63 24.16,-50.62 7.02,-18.99 12.33,-37.92 15.94,-56.78 3.61,-18.86 4.84,-33.23 3.7,-43.11 -0.61,-5.2 -2.45,-9.73 -5.53,-13.59 -3.08,-3.85 -6.5,-7.15 -10.24,-9.88 -3.74,-2.72 -7.06,-5.24 -9.96,-7.53 -2.9,-2.3 -4.47,-4.49 -4.71,-6.57 -0.18,-1.56 0.5,-3.62 2.05,-6.17 1.55,-2.55 3.62,-3.97 6.22,-4.27 4.16,-0.49 8.51,0.72 13.07,3.62 4.55,2.89 10.38,9.99 17.48,21.29 6.38,5.05 13.47,7.13 21.27,6.22 4.68,-0.54 9.73,-2.44 15.15,-5.7 5.42,-3.27 7.84,-5.13 7.26,-5.59 1.16,0.92 1.77,1.64 1.83,2.16 0.3,2.6 -2.21,5.92 -7.54,9.96 -5.33,4.05 -10.85,6.4 -16.57,7.06 -6.76,0.79 -12.37,0.12 -16.83,-2 4.48,6.86 7.54,17.31 9.17,31.35 2.29,19.75 0.57,39.05 -5.15,57.89 -5.71,18.85 -13.62,35.83 -23.72,50.97 -10.11,15.13 -21.19,27.48 -33.25,37.05 -12.06,9.57 -23.56,14.98 -34.47,16.25 -22.02,0.97 -34.6,-12.06 -37.73,-39.1 -4.41,-37.95 8.82,-101.13 39.66,-189.55 -6.11,1.77 -12.02,3.11 -17.71,4.03 -5.69,0.93 -11.45,1.2 -17.29,0.82zm133.76 -59.77c10.59,-8.6 19.4,-17.79 26.44,-27.57 7.03,-9.77 12.77,-19.39 17.2,-28.86 4.43,-9.48 7.47,-18.52 9.1,-27.14 1.64,-8.62 2.35,-16.08 2.15,-22.38 -0.81,-11.5 -3.85,-19.58 -9.13,-24.24 -7.55,-5.97 -18.1,-3.83 -31.66,6.44 -13.56,10.27 -28.42,32.15 -44.56,65.63 -7.61,16.17 -14.16,32.34 -19.66,48.52 -5.5,16.18 -10.99,32.49 -16.46,48.94 11.54,-5.03 23.1,-10.98 34.68,-17.86 11.59,-6.87 22.22,-14.03 31.9,-21.48zm31.75 239.76c-1.02,-8.84 -0.69,-18.5 0.99,-28.97 1.68,-10.47 4.7,-23.07 9.05,-37.8 4.35,-14.73 10.01,-31.85 16.97,-51.37 6.95,-19.51 14.97,-42.44 24.03,-68.78 -2.48,1.34 -5.63,3.68 -9.46,7.02 -3.83,3.35 -6.49,5.37 -7.99,6.07 -5.72,0.66 -8.67,0.21 -8.85,-1.35 -0.06,-0.52 1.97,-2.33 6.08,-5.44 4.12,-3.12 9.01,-6.45 14.65,-10 5.65,-3.55 11.56,-7.14 17.73,-10.75 6.16,-3.61 11.53,-6.21 16.09,-7.79 2.01,-0.77 3.63,-1.61 4.84,-2.54 1.21,-0.93 2.33,-1.46 3.37,-1.58 1.04,-0.12 1.65,0.6 1.83,2.16 0.12,1.04 0.5,2.05 1.15,3.03 0.64,0.98 0.53,2.31 -0.33,3.99 -1.26,2.78 -4.36,10.12 -9.3,22.02 -4.95,11.9 -10.41,26.11 -16.4,42.61 -5.99,16.5 -12.01,33.93 -18.05,52.28 -6.04,18.35 -10.77,35.5 -14.19,51.44 -3.42,15.94 -4.88,29.42 -4.4,40.43 0.49,11 4,17.45 10.54,19.32 8.16,2.22 16.7,-1.41 25.61,-10.87 8.92,-9.47 16.78,-21.18 23.59,-35.14 6.81,-13.97 11.86,-28.38 15.14,-43.25 3.28,-14.87 3.37,-26.61 0.27,-35.21 -2.99,-7.55 -7.97,-13.04 -14.95,-16.44 -6.98,-3.41 -10.63,-6.41 -10.93,-9.01 -0.12,-1.04 0.37,-2.54 1.46,-4.51 1.08,-1.98 2.93,-3.11 5.53,-3.41 4.16,-0.48 8.06,0.25 11.71,2.2 3.65,1.94 8.56,6.77 14.73,14.49 5.16,3.62 11.38,5 18.66,4.16 4.16,-0.48 8.6,-1.92 13.33,-4.31 4.73,-2.39 6.8,-3.82 6.22,-4.28l1.74 1.38c0.24,2.08 -2.1,4.59 -7.03,7.53 -4.93,2.94 -9.73,4.69 -14.41,5.23 -5.2,0.6 -10,0.11 -14.4,-1.49 1.92,2.94 4.67,7.36 8.26,13.27 3.58,5.9 5.61,10.94 6.1,15.1 1.56,13.52 -0.18,26.89 -5.23,40.12 -5.05,13.23 -11.98,25.1 -20.77,35.61 -8.79,10.5 -18.88,18.92 -30.27,25.24 -11.38,6.33 -22.62,9.35 -33.72,9.05 -9.94,0.63 -18.52,-1.8 -25.75,-7.29 -7.22,-5.48 -11.63,-12.88 -13.24,-22.17zm233.47 -222.3c-12.34,29.88 -23.59,64.65 -33.75,104.29 -9.48,36.4 -17.07,68.63 -22.77,96.7 12.07,-14.05 23.75,-24.63 35.05,-31.73 3.91,-2.56 5.99,-2.81 6.24,-0.73 -16.18,15.05 -29,29.45 -38.47,43.19 -14.46,20.65 -23.03,30.86 -25.69,30.65 -6.76,0.78 -10.27,-2.24 -10.53,-9.06 -0.18,-1.56 0.1,-3.7 0.83,-6.42 4.85,-26.38 13.42,-66.1 25.7,-119.16 6.37,-22.35 16.51,-53.03 30.43,-92.05 -5.42,3.26 -9.63,5.59 -12.63,6.99 -5.72,0.67 -8.67,0.22 -8.85,-1.34 -0.18,-1.56 3.25,-3.8 10.29,-6.73 11.54,-5.02 23.38,-11.93 35.53,-20.72 4.9,-3.2 7.93,-4.34 9.09,-3.42 1.74,1.38 1.58,4.56 -0.47,9.54zm194.3 -35.18c0.58,0.46 0.11,3.15 -1.43,8.07 -13.62,27.92 -26.53,66.57 -38.72,115.93 -4.25,17.88 -11.64,45.09 -22.15,81.61 12.41,-15.67 25.67,-28.53 39.78,-38.6 5.88,-3.84 9.17,-5.02 9.87,-3.52 0.64,0.98 -0.84,3 -4.44,6.05 -3.6,3.05 -12.34,11.71 -26.23,25.96 -13.89,14.26 -28.85,31.8 -44.88,52.63 -0.8,2.2 -1.37,4.11 -1.7,5.73 -1.2,3.3 -2.87,4.81 -5.01,4.53 -5.32,-0.43 -5.4,-5.69 -0.25,-15.77 4.87,-21.65 12.06,-52.78 21.57,-93.4 -13.22,26.83 -23.88,46.24 -31.97,58.24 -18.54,26.39 -33.53,40.25 -44.97,41.58 -14.56,1.69 -22.62,-4.23 -24.19,-17.75 -2.05,-17.67 3.49,-49.41 16.62,-95.19 5.69,-19.1 16.76,-48.58 33.22,-88.42 -4.04,1.52 -7.62,2.46 -10.74,2.82 -4.22,-0.04 -8.5,-0.59 -12.84,-1.67 0.98,-0.64 6.03,-2.54 15.15,-5.71 18.17,-6.85 30.14,-12.71 35.89,-17.6 1.96,-1.28 3.49,-1.72 4.59,-1.32 0.58,0.46 0.73,1.76 0.46,3.9 -15.42,39.73 -27.45,74.58 -36.09,104.56 -9.78,33.81 -15.76,59.53 -17.93,77.17 -2.01,14.46 -0.03,22.4 5.93,23.81 5.9,0.9 15.39,-8.11 28.48,-27.01 13.09,-18.91 27.55,-46.4 43.39,-82.49 1.78,-2.84 2.92,-6.66 3.41,-11.46 8.31,-28.37 15.57,-50.94 21.79,-67.74 6.22,-16.79 14.28,-29.05 24.18,-36.79 9.91,-7.73 16.31,-10.45 19.21,-8.15zm57.92 -127.65c-10.64,12.83 -20.68,25.06 -30.13,36.69 -9.45,11.64 -22.11,21.8 -37.96,30.49 -24.15,14.39 -44.92,17.06 -62.3,8.01 -14.61,-7.79 -15.69,-24 -3.27,-48.62 4.17,-9.44 8.95,-13.69 14.33,-12.73l-1.94 10.5c-1.73,12.32 2.7,21.03 13.3,26.12 6.14,2.98 13.57,3.43 22.29,1.37 8.72,-2.07 17.53,-5.59 26.44,-10.58 8.91,-4.98 17.61,-10.6 26.1,-16.85 8.5,-6.26 15.64,-11.7 21.43,-16.32 5.78,-4.62 9.87,-8 12.26,-10.12 2.39,-2.12 2.2,-1.44 -0.55,2.04z"/>
   <path class="fil0" d="M1016.28 1166.3l8.41 -36.54 0.5 -2.43 -12.47 1.45c-5.72,0.66 -12.6,1.59 -20.63,2.78 -8.02,1.2 -16.2,2.28 -24.52,3.24 -2.83,11.92 -5.42,23.68 -7.76,35.28 -2.34,11.6 -4.99,22.85 -7.95,33.73 -4.29,8.4 -8.89,17.62 -13.78,27.68 -4.89,10.05 -10.38,20.7 -16.45,31.94 -2.58,5.04 -5.42,7.74 -8.54,8.1 -4.16,0.49 -6.55,-1.87 -7.15,-7.07 -0.18,-1.56 0.27,-4.51 1.35,-8.85l28.58 -114.76c-3.06,0.88 -6.64,1.82 -10.74,2.83 -4.1,1 -7.45,1.65 -10.05,1.95 -4.16,0.48 -6.36,-0.32 -6.6,-2.4 -0.48,-4.15 9.79,-8.77 30.8,-13.84l17.27 -69.19c0.4,-1.1 0.51,-2.43 0.33,-3.99 -0.3,-2.6 -1.75,-3.75 -4.35,-3.44 -3.12,0.36 -8.8,3.65 -17.04,9.88 -1.38,1.74 -2.58,2.67 -3.62,2.79 -1.04,0.12 -1.62,-0.34 -1.75,-1.38 -0.36,-3.12 1.35,-6.61 5.11,-10.47 3.77,-3.87 8.23,-7.41 13.39,-10.65 5.16,-3.23 10.1,-6.04 14.83,-8.43 4.73,-2.4 7.87,-3.68 9.43,-3.86 4.16,-0.49 7.62,-0.23 10.37,0.77 2.75,1 4.39,3.84 4.94,8.52 0.36,3.12 0.37,5.49 0.03,7.11 -2.73,8.22 -5.41,19.2 -8.03,32.94 -2.63,13.74 -5.92,28.48 -9.89,44.22 11.5,-0.81 22.11,-1.25 31.85,-1.32 9.74,-0.08 17.79,0.04 24.15,0.36 7.63,-25.12 14.24,-45.39 19.83,-60.79 6.45,-17.08 14.62,-29.49 24.53,-37.22 9.9,-7.74 16.31,-10.46 19.21,-8.16 0.58,0.46 0.1,3.15 -1.44,8.07 -13.62,27.93 -26.53,66.57 -38.72,115.93 -4.25,17.89 -11.63,45.09 -22.15,81.61 12.41,-15.67 25.67,-28.53 39.78,-38.6 5.88,-3.84 9.17,-5.01 9.87,-3.51 0.64,0.97 -0.84,2.99 -4.43,6.04 -3.6,3.05 -12.35,11.71 -26.24,25.97 -13.89,14.25 -28.85,31.8 -44.87,52.62 -0.8,2.2 -1.37,4.11 -1.71,5.73 -1.2,3.3 -2.87,4.81 -5.01,4.54 -5.32,-0.44 -5.4,-5.7 -0.25,-15.78 4.87,-21.64 12.06,-52.78 21.58,-93.4zm240.53 -140.92c0.64,0.98 -1.49,3.07 -6.39,6.28 -4.89,3.2 -9.94,5.1 -15.14,5.7 -5.72,0.67 -11.62,-0.23 -17.7,-2.69 7.62,11.24 12.43,25.44 14.42,42.59 2.23,19.24 0.3,38.96 -5.78,59.16 -9.63,30.63 -24.74,57.01 -45.36,79.16 -20.62,22.15 -38.15,32.22 -52.61,30.21 -19.84,-2.97 -31.39,-18.49 -34.65,-46.57 -1.69,-14.55 -0.41,-30.77 3.84,-48.65 10.69,-48.67 35.4,-85.52 74.12,-110.56 8.82,-5.76 13.81,-8.19 14.97,-7.27l-8.27 10.45c-27.86,36.95 -46.31,82.3 -55.36,136.04 -2.81,16.66 -3.67,29.67 -2.59,39.03 1.57,13.52 6.77,19.76 15.61,18.74 11.96,-1.39 25.47,-16.66 40.53,-45.8 16.84,-31.99 27.95,-65.68 33.33,-101.08 2.13,-13.43 2.69,-24.55 1.66,-33.39 -1.63,-14.04 -7.63,-24.94 -18.02,-32.69 -7.48,-5.46 -11.89,-9.42 -13.23,-11.9 -2.68,-4.96 -1.32,-9.07 4.1,-12.33 4.9,-3.21 9.57,-1.51 14.03,5.09 4.45,6.59 9.87,12.42 16.25,17.48 4.7,4.19 11.3,6.59 19.8,7.19 4.74,-0.03 9.65,-0.86 14.73,-2.5 5.08,-1.65 7.65,-2.21 7.71,-1.69zm4.07 35.1c7.05,-11.89 14.98,-23.08 23.77,-33.58 8.79,-10.51 17.57,-18.9 26.32,-25.19 8.76,-6.28 16.92,-9.73 24.49,-10.35 7.57,-0.61 13.92,3 19.04,10.84 6.41,9.79 7.87,22.4 4.39,37.82 -3.48,15.42 -8.92,32.13 -16.32,50.11 -7.4,17.98 -15.41,36.43 -24.02,55.34 -8.6,18.92 -15.09,36.79 -19.46,53.64 -3.44,6.72 -3.75,10.84 -0.94,12.36 2.81,1.51 7.57,0.57 14.29,-2.85 6.72,-3.41 14.64,-8.94 23.77,-16.58 9.12,-7.65 17.79,-16.95 26,-27.92 3.86,-3.08 6.05,-4.65 6.57,-4.71l0.87 0.69c0.64,0.98 -0.13,3.44 -2.31,7.38 -14.68,23.31 -28.85,39.7 -42.5,49.19 -13.66,9.49 -25.27,13.86 -34.84,13.13 -9.57,-0.74 -16.11,-6.04 -19.63,-15.9 -3.51,-9.87 -2.45,-22.25 3.21,-37.13 1.19,-3.3 4.23,-10.1 9.09,-20.42 4.86,-10.31 10.23,-22 16.09,-35.06 5.86,-13.06 11.66,-26.64 17.4,-40.75 5.74,-14.1 10.19,-26.86 13.34,-38.3 3.16,-11.43 4.47,-20.54 3.95,-27.33 -0.53,-6.78 -4.4,-9.5 -11.62,-8.13 -2.59,0.3 -6.77,2.89 -12.53,7.77 -5.76,4.89 -11.8,10.72 -18.12,17.52 -6.33,6.79 -12.45,14.22 -18.36,22.28 -5.92,8.06 -10.59,15.46 -14.03,22.18l2.09 -16.05zm280.59 -68.11c0.64,0.98 -1.49,3.07 -6.38,6.27 -4.9,3.21 -9.95,5.11 -15.15,5.71 -5.72,0.67 -11.62,-0.23 -17.7,-2.69 7.63,11.24 12.43,25.43 14.42,42.59 2.23,19.24 0.31,38.96 -5.78,59.16 -9.62,30.62 -24.74,57.01 -45.36,79.16 -20.61,22.15 -38.15,32.22 -52.61,30.21 -19.84,-2.97 -31.39,-18.49 -34.65,-46.57 -1.69,-14.56 -0.4,-30.77 3.84,-48.66 10.7,-48.66 35.4,-85.51 74.13,-110.55 8.81,-5.77 13.8,-8.19 14.96,-7.27l-8.27 10.44c-27.86,36.96 -46.31,82.31 -55.36,136.05 -2.81,16.66 -3.67,29.67 -2.59,39.03 1.57,13.51 6.77,19.76 15.61,18.74 11.96,-1.39 25.47,-16.66 40.53,-45.8 16.84,-31.99 27.95,-65.69 33.33,-101.09 2.13,-13.42 2.69,-24.55 1.66,-33.39 -1.63,-14.03 -7.63,-24.93 -18.02,-32.68 -7.48,-5.46 -11.89,-9.43 -13.23,-11.9 -2.68,-4.96 -1.32,-9.07 4.1,-12.34 4.9,-3.2 9.58,-1.5 14.03,5.1 4.45,6.59 9.87,12.42 16.25,17.48 4.7,4.19 11.31,6.59 19.81,7.18 4.73,-0.02 9.64,-0.85 14.72,-2.49 5.08,-1.65 7.65,-2.21 7.71,-1.69zm258 -24.39c-6.43,21.83 -16.15,56.15 -29.16,102.97 -5.17,19.05 -11.79,48.27 -19.87,87.67 -0.77,6.94 0.2,10.78 2.92,11.52 4.22,0.03 9.78,-4.3 16.67,-13 3.22,-4.06 5.38,-5.89 6.48,-5.5 1.74,1.38 1,4.1 -2.22,8.17 -14.99,20.7 -27.77,30.88 -38.35,30.53 -8.96,-0.02 -13.5,-7.4 -13.63,-22.14 0.21,-16.35 6.9,-49.54 20.07,-99.54 4.43,-16.32 11.71,-42.19 21.83,-77.62 1.81,-7.06 1.91,-10.76 0.29,-11.1 -1.68,-0.86 -4.82,1.62 -9.42,7.42 -20.68,26.11 -37.69,49.82 -51.03,71.12 -13.33,21.31 -30.61,56.38 -51.82,105.21 -1.26,2.78 -4.5,7.76 -9.72,14.95 -5.23,7.2 -9.98,10.51 -14.26,9.96 -2.72,-0.74 -2.44,-7.36 0.86,-19.86 4.25,-17.88 11.85,-47.75 22.8,-89.59 4.89,-16.9 11.91,-42.74 21.05,-77.53 1.35,-6.48 1.48,-9.92 0.38,-10.32 -2.2,-0.79 -5.37,1.42 -9.5,6.64 -18.85,23.79 -36.07,47.92 -51.68,72.38 -10.73,16.53 -27.65,50.11 -50.76,100.74 -2.24,3.42 -5.76,9.36 -10.58,17.82 -2.39,6.6 -6.02,9.39 -10.88,8.38 -4.92,-1.54 -6.07,-6.94 -3.46,-16.2 4.03,-15.22 12.94,-49.71 26.73,-103.48l22.72 -90.36c1.47,-5.44 0.13,-7.92 -4.03,-7.44 -2.6,0.3 -8.28,3.59 -17.03,9.88 -2.88,2.44 -4.64,3.17 -5.28,2.19 -0.64,-0.98 0.19,-2.92 2.49,-5.82 13.97,-15.85 27.36,-25.3 40.18,-28.37 6.7,-1.31 11.3,-0.26 13.8,3.14 1.92,2.94 2.43,7.36 1.54,13.26 -2.14,13.42 -6.92,33.47 -14.37,60.15 -10.3,33.87 -16.83,57.02 -19.61,69.46 12.79,-21.51 27.05,-43.97 42.77,-67.4 18.94,-27.49 35.92,-49.22 50.93,-65.19 9.89,-10.1 18.37,-14.25 25.43,-12.43 6.02,1.94 7.59,8.61 4.69,20.01 -2.95,10.88 -13.58,48.73 -31.88,113.56 13.65,-23.19 27.67,-45.37 42.08,-66.53 18.48,-26.91 35.46,-48.64 50.93,-65.19 9.89,-10.1 18.37,-14.25 25.43,-12.43 7.06,1.81 8.88,8.45 5.47,19.91zm179.52 -26.35c0.64,0.98 -1.49,3.07 -6.38,6.28 -4.9,3.2 -9.95,5.1 -15.15,5.7 -5.72,0.67 -11.62,-0.23 -17.7,-2.69 7.63,11.24 12.43,25.44 14.42,42.59 2.23,19.24 0.31,38.96 -5.78,59.16 -9.62,30.63 -24.74,57.01 -45.36,79.16 -20.61,22.15 -38.15,32.22 -52.61,30.21 -19.84,-2.97 -31.39,-18.49 -34.65,-46.57 -1.68,-14.55 -0.4,-30.77 3.85,-48.65 10.69,-48.67 35.39,-85.52 74.12,-110.56 8.81,-5.76 13.8,-8.19 14.96,-7.27l-8.27 10.45c-27.86,36.95 -46.31,82.3 -55.36,136.04 -2.81,16.66 -3.67,29.67 -2.59,39.03 1.57,13.52 6.77,19.76 15.61,18.74 11.96,-1.39 25.47,-16.66 40.53,-45.8 16.84,-31.99 27.95,-65.68 33.33,-101.09 2.13,-13.42 2.69,-24.55 1.66,-33.38 -1.62,-14.04 -7.63,-24.94 -18.01,-32.69 -7.49,-5.46 -11.9,-9.42 -13.24,-11.9 -2.68,-4.96 -1.32,-9.07 4.1,-12.33 4.9,-3.21 9.58,-1.51 14.03,5.09 4.45,6.59 9.87,12.42 16.25,17.48 4.71,4.19 11.31,6.59 19.81,7.18 4.74,-0.02 9.64,-0.85 14.72,-2.49 5.08,-1.65 7.65,-2.21 7.71,-1.69zm357.02 229.7c0.71,15.2 -6.37,28.01 -21.23,38.43 -14.86,10.41 -32.72,16.57 -53.58,18.46 -27.1,2.62 -54.92,-7.86 -83.47,-31.42 -26.18,-21.2 -49.9,-50.86 -71.18,-88.96 -25.89,-46 -42.92,-90.66 -51.1,-133.97 -16.38,67.76 -33.44,120.59 -51.18,158.47 -2.12,4.47 -5.15,10.09 -9.11,16.87 -2.64,4.52 -6.07,6.76 -10.29,6.72 -5.37,-0.95 -8.61,-6.11 -9.69,-15.47 -2.48,-21.32 -0.33,-43.7 6.44,-67.14 8.58,-30.5 23.26,-60.66 44.04,-90.47 6.35,-27.08 13.62,-52.95 21.83,-77.61 14.75,-45.45 31.03,-83.43 48.83,-113.95 17.8,-30.52 37.03,-54.35 57.7,-71.5 13.99,-11.11 22.44,-15.52 25.34,-13.22l-15.17 19.15c-16.08,20.31 -31.57,45.82 -46.45,76.52 -13.62,27.93 -28.13,64.12 -43.52,108.59 -2.68,8.74 -7.29,23.5 -13.84,44.28 29.14,-34.99 59.31,-54.3 90.5,-57.91 20.8,-2.42 31.95,2.88 33.46,15.88 1.33,11.43 -5.83,22.41 -21.47,32.92 -15.65,10.5 -33.84,17.22 -54.57,20.16 -12.48,1.44 -21.93,1.75 -28.35,0.91 9.08,37.41 26.19,80.48 51.34,129.2 44.93,87.53 90.1,129.45 135.51,125.77 37.04,-3.24 55.97,-26.25 56.81,-69.03l3.99 0.33c5.34,5.17 8.15,11.17 8.41,17.99zm-182.14 -248.4c-0.97,-8.32 -7.43,-11.78 -19.39,-10.4 -22.35,2.6 -46.32,18.55 -71.9,47.86 13.94,2.07 28.91,1.66 44.9,-1.25 13.4,-2.61 24.69,-7.48 33.88,-14.6 9.18,-7.13 13.35,-14.33 12.51,-21.61zm-131.44 72.94c-13.77,22.15 -24.29,46.16 -31.56,72.03 -7.28,25.87 -9.47,51.29 -6.57,76.25 5.49,-11.71 12.57,-37.03 21.22,-75.97 5.67,-23.84 11.3,-47.94 16.91,-72.31z"/>
 </g>
</symbol><symbol id="viber" viewBox="0 0 400 400">
 <g>
  <g>
   <path class="fil0" d="M77.78 320.98c4.39,-28.32 17.57,-42.19 10.7,-52.9 -35.07,-54.64 -22.42,-127.04 15.98,-165.23 19,-18.9 53.27,-36.07 83.08,-37.35 19.78,-0.86 45,0.06 59.92,8.41 28.43,15.9 16.27,7.97 41.63,27.45 47.88,36.78 59.23,139.15 -2.62,192.64 -29.72,25.72 -62.03,37.59 -104.18,32.77 -48.25,-5.51 -46.99,-23.35 -63.53,-17.98 -13.3,4.31 -28.48,10.66 -40.98,12.19zm-42.65 40.78c15.64,-2.74 49.88,-14.03 65.67,-19.78 4.06,-1.47 12.16,-4.89 16.73,-5.78 7.86,-1.53 23.86,9.82 48.5,15.24 23.08,5.06 54.87,4.84 77.37,-2.64 21.49,-7.14 38.15,-18.57 55.4,-29.44 12.15,-7.65 29.78,-32.18 38.34,-47.81 23.7,-43.26 26.25,-94.71 6.02,-139.32 -12.96,-28.58 -15.07,-24.14 -24.86,-39.19 -2.66,-4.07 -6.28,-7.55 -9.83,-11.04 -4.12,-4.05 -6.98,-6.37 -11.94,-10.27 -7.28,-5.71 -33.05,-18.88 -41.76,-22.33 -45.18,-17.87 -95.57,-14.53 -138.32,11.94 -5.08,3.14 -9.8,4.67 -13.8,8.38 -8.04,7.46 -13.96,11.72 -21.38,20.35 -3.96,4.63 -4.68,6.67 -9.26,11.66 -11.33,12.32 -22.7,38.69 -27.35,58.73 -8.72,37.55 -4.79,72.49 12.61,106.21 8.04,15.58 4.81,14.66 -0.98,32.08 -3.65,10.98 -20.84,55.96 -21.16,63.01z"/>
   <path class="fil0" d="M279.66 237.24c-4.9,-4.22 -32.17,-19.63 -37.28,-20.57 -8.33,2.75 -12.56,14.61 -19.76,18.81 -9.65,5.63 -41.95,-21.14 -47.08,-28.39 -3.81,-5.38 -13.12,-17.2 -14.58,-25.06 3.84,-7.34 11.17,-9.7 13.37,-17.41 2.04,-7.18 -12.01,-41.59 -15.43,-44.01 -20.25,-14.36 -66.74,27.8 -18.85,88.02 19.13,24.06 32.99,41.37 65.89,55.54 13.67,5.88 31.21,14.83 48.87,8.48 15.78,-5.67 26.41,-16.04 24.85,-35.41z"/>
  </g>
  <path class="fil1" d="M244.65 181.37c0.08,2.09 -1.55,3.88 -3.64,3.96 -2.09,0.08 -3.88,-1.55 -3.96,-3.64 -0.45,-10.36 -3.08,-18.53 -8.06,-24.28 -4.93,-5.69 -12.37,-9.2 -22.44,-10.3 -2.08,-0.22 -3.6,-2.1 -3.38,-4.18 0.22,-2.08 2.1,-3.6 4.18,-3.38 12.09,1.32 21.16,5.71 27.38,12.88 6.15,7.1 9.4,16.85 9.92,28.94z"/>
  <path class="fil1" d="M280.6 198.32c0.08,2.09 -1.55,3.88 -3.64,3.96 -2.09,0.08 -3.88,-1.55 -3.96,-3.64 -1.19,-27.21 -8.2,-48.77 -21.55,-64.18 -13.29,-15.33 -33.07,-24.74 -59.8,-27.68 -2.08,-0.23 -3.59,-2.12 -3.36,-4.2 0.23,-2.08 2.12,-3.59 4.2,-3.36 28.72,3.16 50.12,13.45 64.7,30.26 14.53,16.77 22.15,39.89 23.41,68.84z"/>
 </g>
</symbol><symbol id="whats" viewBox="0 0 400 400">
 <g>
  <g>
   <path class="fil0" d="M76.22 320.98c4.39,-28.32 17.57,-42.19 10.7,-52.9 -35.07,-54.64 -22.42,-127.04 15.98,-165.23 19,-18.9 53.28,-36.07 83.08,-37.35 19.78,-0.86 45,0.06 59.92,8.41 28.43,15.9 16.27,7.97 41.63,27.45 47.88,36.78 59.23,139.15 -2.61,192.64 -29.73,25.72 -62.04,37.59 -104.18,32.77 -48.26,-5.51 -46.99,-23.35 -63.54,-17.98 -13.3,4.31 -28.48,10.66 -40.98,12.19zm-42.65 40.78c15.64,-2.74 49.89,-14.03 65.67,-19.78 4.06,-1.47 12.16,-4.89 16.74,-5.78 7.85,-1.53 23.85,9.82 48.49,15.24 23.09,5.06 54.87,4.84 77.38,-2.64 21.48,-7.14 38.14,-18.57 55.39,-29.44 12.15,-7.65 29.78,-32.18 38.34,-47.81 23.7,-43.26 26.25,-94.71 6.02,-139.32 -12.96,-28.58 -15.06,-24.14 -24.86,-39.19 -2.66,-4.07 -6.28,-7.55 -9.83,-11.04 -4.11,-4.05 -6.98,-6.37 -11.94,-10.27 -7.28,-5.71 -33.04,-18.88 -41.76,-22.33 -45.18,-17.87 -95.57,-14.53 -138.32,11.94 -5.08,3.14 -9.8,4.67 -13.79,8.38 -8.04,7.46 -13.96,11.72 -21.38,20.35 -3.97,4.63 -4.69,6.67 -9.27,11.66 -11.33,12.32 -22.7,38.69 -27.35,58.73 -8.71,37.55 -4.79,72.49 12.61,106.21 8.04,15.58 4.82,14.66 -0.98,32.08 -3.65,10.98 -20.83,55.96 -21.16,63.01z"/>
   <path class="fil0" d="M278.1 237.24c-4.9,-4.22 -32.16,-19.63 -37.28,-20.57 -8.33,2.75 -12.56,14.61 -19.75,18.81 -9.66,5.63 -41.96,-21.14 -47.09,-28.39 -3.81,-5.38 -13.12,-17.2 -14.57,-25.06 3.83,-7.34 11.16,-9.7 13.36,-17.41 2.04,-7.18 -12.01,-41.59 -15.43,-44.01 -20.25,-14.36 -66.74,27.8 -18.85,88.02 19.14,24.06 32.99,41.37 65.89,55.54 13.67,5.88 31.21,14.83 48.87,8.48 15.78,-5.67 26.41,-16.04 24.85,-35.41z"/>
  </g>
 </g>
</symbol></svg>