<svg xmlns="http://www.w3.org/2000/svg" xml:space="preserve" version="1.1"
viewBox="0 0 400 400"
 xmlns:xlink="http://www.w3.org/1999/xlink">
 <g>
  <g>
   <path class="fil0" d="M77.78 320.98c4.39,-28.32 17.57,-42.19 10.7,-52.9 -35.07,-54.64 -22.42,-127.04 15.98,-165.23 19,-18.9 53.27,-36.07 83.08,-37.35 19.78,-0.86 45,0.06 59.92,8.41 28.43,15.9 16.27,7.97 41.63,27.45 47.88,36.78 59.23,139.15 -2.62,192.64 -29.72,25.72 -62.03,37.59 -104.18,32.77 -48.25,-5.51 -46.99,-23.35 -63.53,-17.98 -13.3,4.31 -28.48,10.66 -40.98,12.19zm-42.65 40.78c15.64,-2.74 49.88,-14.03 65.67,-19.78 4.06,-1.47 12.16,-4.89 16.73,-5.78 7.86,-1.53 23.86,9.82 48.5,15.24 23.08,5.06 54.87,4.84 77.37,-2.64 21.49,-7.14 38.15,-18.57 55.4,-29.44 12.15,-7.65 29.78,-32.18 38.34,-47.81 23.7,-43.26 26.25,-94.71 6.02,-139.32 -12.96,-28.58 -15.07,-24.14 -24.86,-39.19 -2.66,-4.07 -6.28,-7.55 -9.83,-11.04 -4.12,-4.05 -6.98,-6.37 -11.94,-10.27 -7.28,-5.71 -33.05,-18.88 -41.76,-22.33 -45.18,-17.87 -95.57,-14.53 -138.32,11.94 -5.08,3.14 -9.8,4.67 -13.8,8.38 -8.04,7.46 -13.96,11.72 -21.38,20.35 -3.96,4.63 -4.68,6.67 -9.26,11.66 -11.33,12.32 -22.7,38.69 -27.35,58.73 -8.72,37.55 -4.79,72.49 12.61,106.21 8.04,15.58 4.81,14.66 -0.98,32.08 -3.65,10.98 -20.84,55.96 -21.16,63.01z"/>
   <path class="fil0" d="M279.66 237.24c-4.9,-4.22 -32.17,-19.63 -37.28,-20.57 -8.33,2.75 -12.56,14.61 -19.76,18.81 -9.65,5.63 -41.95,-21.14 -47.08,-28.39 -3.81,-5.38 -13.12,-17.2 -14.58,-25.06 3.84,-7.34 11.17,-9.7 13.37,-17.41 2.04,-7.18 -12.01,-41.59 -15.43,-44.01 -20.25,-14.36 -66.74,27.8 -18.85,88.02 19.13,24.06 32.99,41.37 65.89,55.54 13.67,5.88 31.21,14.83 48.87,8.48 15.78,-5.67 26.41,-16.04 24.85,-35.41z"/>
  </g>
  <path class="fil1" d="M244.65 181.37c0.08,2.09 -1.55,3.88 -3.64,3.96 -2.09,0.08 -3.88,-1.55 -3.96,-3.64 -0.45,-10.36 -3.08,-18.53 -8.06,-24.28 -4.93,-5.69 -12.37,-9.2 -22.44,-10.3 -2.08,-0.22 -3.6,-2.1 -3.38,-4.18 0.22,-2.08 2.1,-3.6 4.18,-3.38 12.09,1.32 21.16,5.71 27.38,12.88 6.15,7.1 9.4,16.85 9.92,28.94z"/>
  <path class="fil1" d="M280.6 198.32c0.08,2.09 -1.55,3.88 -3.64,3.96 -2.09,0.08 -3.88,-1.55 -3.96,-3.64 -1.19,-27.21 -8.2,-48.77 -21.55,-64.18 -13.29,-15.33 -33.07,-24.74 -59.8,-27.68 -2.08,-0.23 -3.59,-2.12 -3.36,-4.2 0.23,-2.08 2.12,-3.59 4.2,-3.36 28.72,3.16 50.12,13.45 64.7,30.26 14.53,16.77 22.15,39.89 23.41,68.84z"/>
 </g>
</svg>
