<svg xmlns="http://www.w3.org/2000/svg" xml:space="preserve" version="1.1"
viewBox="0 0 400 400"
 xmlns:xlink="http://www.w3.org/1999/xlink">
 <g>
  <g>
   <path class="fil0" d="M76.22 320.98c4.39,-28.32 17.57,-42.19 10.7,-52.9 -35.07,-54.64 -22.42,-127.04 15.98,-165.23 19,-18.9 53.28,-36.07 83.08,-37.35 19.78,-0.86 45,0.06 59.92,8.41 28.43,15.9 16.27,7.97 41.63,27.45 47.88,36.78 59.23,139.15 -2.61,192.64 -29.73,25.72 -62.04,37.59 -104.18,32.77 -48.26,-5.51 -46.99,-23.35 -63.54,-17.98 -13.3,4.31 -28.48,10.66 -40.98,12.19zm-42.65 40.78c15.64,-2.74 49.89,-14.03 65.67,-19.78 4.06,-1.47 12.16,-4.89 16.74,-5.78 7.85,-1.53 23.85,9.82 48.49,15.24 23.09,5.06 54.87,4.84 77.38,-2.64 21.48,-7.14 38.14,-18.57 55.39,-29.44 12.15,-7.65 29.78,-32.18 38.34,-47.81 23.7,-43.26 26.25,-94.71 6.02,-139.32 -12.96,-28.58 -15.06,-24.14 -24.86,-39.19 -2.66,-4.07 -6.28,-7.55 -9.83,-11.04 -4.11,-4.05 -6.98,-6.37 -11.94,-10.27 -7.28,-5.71 -33.04,-18.88 -41.76,-22.33 -45.18,-17.87 -95.57,-14.53 -138.32,11.94 -5.08,3.14 -9.8,4.67 -13.79,8.38 -8.04,7.46 -13.96,11.72 -21.38,20.35 -3.97,4.63 -4.69,6.67 -9.27,11.66 -11.33,12.32 -22.7,38.69 -27.35,58.73 -8.71,37.55 -4.79,72.49 12.61,106.21 8.04,15.58 4.82,14.66 -0.98,32.08 -3.65,10.98 -20.83,55.96 -21.16,63.01z"/>
   <path class="fil0" d="M278.1 237.24c-4.9,-4.22 -32.16,-19.63 -37.28,-20.57 -8.33,2.75 -12.56,14.61 -19.75,18.81 -9.66,5.63 -41.96,-21.14 -47.09,-28.39 -3.81,-5.38 -13.12,-17.2 -14.57,-25.06 3.83,-7.34 11.16,-9.7 13.36,-17.41 2.04,-7.18 -12.01,-41.59 -15.43,-44.01 -20.25,-14.36 -66.74,27.8 -18.85,88.02 19.14,24.06 32.99,41.37 65.89,55.54 13.67,5.88 31.21,14.83 48.87,8.48 15.78,-5.67 26.41,-16.04 24.85,-35.41z"/>
  </g>
 </g>
</svg>
